# xmcd
#
# Track frame offsets: 
#        150
#        538
#        13080
#        29651
#        44845
#        61329
#        73996
#        89620
#        103154
#        115540
#        122937
#        143394
#        159458
#        169734
#        193049
#
# Disc length: 4289 seconds
#
# Revision: 5
# Processed by: cddbd v1.5.2PL0 Copyright (c) Steve Scherf et al.
# Submitted via: ExactAudioCopy v0.99pb3
#
DISCID=d310bf0f
DTITLE=The Offspring - Conspiracy Of One
DYEAR=2000
DGENRE=Rock
TTITLE0=Intro
TTITLE1=Come Out Swinging
TTITLE2=Original Prankster
TTITLE3=Want You Bad
TTITLE4=Million Miles Away
TTITLE5=Dammit, I Changed Again
TTITLE6=Living In Chaos
TTITLE7=Special Delivery
TTITLE8=One Fine Day
TTITLE9=All Along
TTITLE10=Denial, Revisited
TTITLE11=Vultures
TTITLE12=Conspiracy Of One
TTITLE13=Huck It
TTITLE14=Data Track
EXTD=contains bonus track HUCK IT from the film HUCK IT, also contains
EXTD=videos for veiwing on PC\n\nIG-88
EXTT0=
EXTT1=
EXTT2=
EXTT3=
EXTT4=
EXTT5=
EXTT6=
EXTT7=
EXTT8=
EXTT9=
EXTT10=
EXTT11=
EXTT12=
EXTT13=
EXTT14=
PLAYORDER=
